<svg width="29" height="36" viewBox="0 0 29 36" fill="none" xmlns="http://www.w3.org/2000/svg">
<path d="M0.56134 1.20718C1.99255 0.270564 3.42378 0.566338 4.70694 1.01C6.48362 1.65084 8.21094 2.48887 9.79021 3.47479C16.9463 8.20718 21.2399 14.9607 23.0166 23.2917C23.4608 25.4114 23.6088 27.6297 23.9049 30.0452C25.879 28.9114 26.9154 26.6931 28.8895 25.4114C29.1363 26.3973 28.6427 27.0382 28.2479 27.5804C26.6193 29.7987 24.9413 32.017 23.214 34.186C22.375 35.2212 21.7334 35.3198 20.8451 34.4325C18.9697 32.6086 17.8346 30.3903 17.4892 27.8269C17.4892 27.7283 17.6372 27.5804 17.8346 27.3339C19.9568 27.8762 19.4632 30.5874 21.2893 31.5734C22.0789 28.172 21.4867 24.9184 20.5983 21.7635C19.6606 18.4607 18.4268 15.3058 16.4528 12.4959C14.528 9.73535 12.1098 7.51704 9.44474 5.44662C6.82907 3.3269 3.86794 1.99592 0.56134 1.20718Z" fill="white"/>
</svg>
