<svg width="42" height="38" viewBox="0 0 42 38" fill="none" xmlns="http://www.w3.org/2000/svg">
<g clip-path="url(#clip0_2_121)">
<path d="M40.9307 10.4225C41.3809 12.0727 40.6585 13.3432 39.8412 14.4272C38.6841 15.92 37.3547 17.3052 35.9302 18.5039C29.2234 23.8539 21.4756 25.8581 13.0024 24.9818C10.849 24.7513 8.69294 24.2088 6.30372 23.7463C6.77419 25.9737 8.56532 27.6431 9.17649 29.916C8.16251 29.847 7.70488 29.1801 7.31064 28.6374C5.70197 26.4046 4.1085 24.1248 2.57714 21.8133C1.85075 20.6962 1.95461 20.0554 3.07246 19.4837C5.38545 18.2614 7.84556 17.865 10.3907 18.326C10.4845 18.3564 10.5796 18.5428 10.7532 18.8065C9.58358 20.6584 7.15623 19.3536 5.65571 20.7871C8.6484 22.5862 11.9261 23.0251 15.2013 23.152C18.6323 23.2774 22.0139 23.0756 25.2953 22.0632C28.5145 21.0825 31.37 19.4653 34.1607 17.5677C36.9832 15.7323 39.1617 13.3253 40.9307 10.4225Z" fill="white"/>
</g>
<defs>
<clipPath id="clip0_2_121">
<rect width="28.3944" height="34.4457" fill="white" transform="translate(41.5176 10.6125) rotate(107.943)"/>
</clipPath>
</defs>
</svg>
