<svg width="58" height="28" viewBox="0 0 58 28" fill="none" xmlns="http://www.w3.org/2000/svg">
<path d="M6.16616 1.00666C5.70416 1.20266 5.36816 1.41266 5.03216 1.69266C4.24816 2.37866 3.74416 3.54066 4.20616 4.91266C4.51416 5.85066 5.27016 6.46666 6.22216 6.74666C6.60016 6.88666 7.44016 7.13866 7.63616 7.53066C7.87416 8.02066 7.55216 8.53866 7.27216 8.72066C6.72616 9.11266 6.01216 8.91666 5.35416 9.09866C4.94816 9.21066 4.69616 9.39266 4.65416 9.68666C4.62616 9.82666 4.61216 10.1067 4.83616 10.4007C5.29816 10.8767 6.19416 10.5967 6.76816 10.5687C7.79016 10.3727 8.51816 9.78466 8.86816 9.25266C9.09216 8.91666 9.30216 8.25866 9.34416 7.86666C9.44216 6.95666 8.88216 6.10266 8.29416 5.72466C7.44016 5.19266 5.91416 5.27666 5.63416 3.82066C5.53616 3.31666 6.09616 2.67266 6.79616 2.56066C7.25816 2.49066 7.55216 2.95266 7.73416 3.20466C7.94416 3.51266 8.18216 4.07266 8.53216 4.08666C9.07816 4.10066 9.42816 3.33066 9.33016 2.92466C9.31616 2.79866 9.06416 2.25266 8.91016 2.04266C8.50416 0.978664 6.88016 0.642664 6.16616 1.00666ZM11.2669 5.44466C11.7849 5.48666 12.3729 4.85666 13.4229 4.68866C13.7449 4.73066 14.2209 5.45866 13.8709 5.93466C13.6469 6.21466 12.4429 6.13066 11.7569 6.34066C11.3649 6.46666 10.8749 6.76066 10.6789 6.95666C10.3709 7.26466 10.0069 7.75466 10.1609 8.49666C10.2029 8.81866 10.4829 9.11266 10.7349 9.33666C11.3509 9.99466 11.9809 10.2467 12.8069 10.5687C13.0449 10.6667 13.6189 10.7647 13.8569 10.7227C14.1929 10.6807 14.5569 10.1767 14.6549 9.89666C14.8789 9.14066 15.0189 8.37066 15.1729 7.55866C15.2849 6.84466 15.4949 5.83666 15.3409 4.94066C15.2289 4.21266 14.7529 3.54066 14.2489 3.35866C13.3669 3.16266 12.6809 3.45666 11.7989 3.90466C11.3509 4.10066 10.8189 4.36666 10.8889 4.92666C10.9309 5.17866 11.0009 5.34666 11.2669 5.44466ZM12.7929 7.41866C13.0589 7.40466 13.5909 7.33466 13.7729 7.48866C13.7729 7.97866 13.7309 8.95866 13.2969 9.07066C12.6249 8.97266 11.5889 8.67866 11.5749 7.86666C11.7849 7.58666 12.2609 7.44666 12.7929 7.41866ZM18.4705 8.31466C18.3725 7.61466 18.1345 6.50866 17.9665 5.82266C17.8825 5.47266 17.7425 4.71666 17.5605 4.50666C17.2385 4.14266 16.5385 4.35266 16.3145 4.66066C16.2585 4.74466 16.1185 5.05266 16.2585 5.45866C16.3425 6.18666 17.0985 8.06266 17.4205 9.32266C17.5605 9.93866 17.6445 10.4567 18.0785 10.5547C18.7925 10.7647 19.3105 9.78466 19.6045 9.28066C20.5705 7.58666 20.9485 6.80266 21.4385 5.94866C21.7045 5.47266 22.1105 5.12266 21.9005 4.49266C21.7465 3.96066 21.1725 3.83466 20.7665 4.12866C20.2905 4.46466 20.1365 5.15066 19.8145 5.76666C19.3525 6.48066 18.9465 7.53066 18.4705 8.31466ZM24.0558 8.46866C24.3918 8.35666 24.9658 8.18866 25.3998 8.06266C26.0438 7.88066 26.3658 7.68466 26.9958 7.46066C27.3738 7.33466 27.6398 6.85866 27.6118 6.48066C27.6118 6.22866 27.4158 5.66866 27.3178 5.50066C26.7158 4.08666 25.5678 3.68066 24.1958 4.15666C23.6358 4.32466 23.0058 4.87066 22.6698 5.50066C22.2218 6.11666 22.0678 6.99866 22.3338 8.20266C22.7118 9.35066 23.0758 9.75666 24.2098 10.2187C24.9238 10.5967 26.2958 10.4147 27.0098 9.89666C27.2478 9.70066 27.3178 9.26666 27.0098 8.94466C26.4778 8.62266 26.0858 9.37866 25.1478 9.18266C24.5318 9.05666 24.1678 8.93066 24.0558 8.46866ZM24.0558 5.82266C24.9378 5.10866 25.7778 5.16466 26.1418 6.22866C26.0718 6.46666 25.6658 6.70466 25.3438 6.77466C24.8538 6.87266 23.9998 7.15266 23.7478 7.11066C23.6358 6.85866 23.6918 6.11666 24.0558 5.82266ZM33.7106 1.94466C33.1366 2.18266 33.2346 3.26066 33.1506 3.98866C32.9686 5.50066 32.9546 7.11066 32.6606 8.72066C32.5486 9.35066 32.3106 10.5407 33.0386 10.6527C33.4166 10.7087 33.9486 10.3307 34.1026 10.0227C34.3266 9.56066 34.2006 8.63666 34.2846 8.04866C34.4246 6.90066 34.5086 5.24866 34.6626 4.03066C34.7326 3.47066 35.0546 2.65866 34.8866 2.29466C34.6906 1.80466 34.0466 1.80466 33.7106 1.94466ZM39.6621 2.04266C37.1561 2.43466 36.4981 4.74466 36.3301 6.63466C36.1481 7.44666 36.0781 9.23866 37.0161 9.78466C37.6461 10.1487 38.5561 10.6247 39.7181 10.3727C42.8541 9.70066 43.2181 5.24866 42.4481 3.80666C42.0421 3.02266 41.0621 1.81866 39.6621 2.04266ZM38.2621 4.89866C38.5141 4.46466 39.1161 3.79266 39.6621 3.76466C40.3761 3.73666 41.1321 4.73066 41.2021 5.24866C41.3701 6.43866 40.8381 8.56666 39.5501 8.84666C39.0461 8.95866 38.1921 8.65066 37.9681 8.20266C37.6601 7.57266 37.7441 5.79466 38.2621 4.89866ZM51.2575 1.70666C50.5435 1.83266 50.4035 2.21066 50.0535 2.82666C49.5075 3.82066 49.1015 4.63266 48.6115 5.71066C48.3315 6.35466 48.0795 6.88666 47.7715 7.51666C47.5895 7.93666 47.0995 8.53866 47.1275 9.05666C47.1695 9.64466 47.7435 9.86866 48.3315 9.60266C48.9755 9.32266 49.3395 8.21666 49.6195 7.61466C50.0955 6.59266 50.5995 5.41666 51.2015 4.25466C51.4675 3.75066 52.2515 2.54666 52.0695 2.00066C51.9715 1.67866 51.6915 1.62266 51.2575 1.70666ZM46.1195 1.83266C45.4335 1.93066 44.6775 2.39266 44.4395 2.82666C44.0615 3.51266 44.1455 4.87066 44.7895 5.29066C46.7075 6.59266 48.7795 4.85666 48.3595 3.28866C48.1635 2.53266 47.0435 1.69266 46.1195 1.83266ZM46.9175 3.96066C46.8195 4.94066 45.1535 4.03066 46.0775 3.33066C46.5395 3.20466 46.9735 3.51266 46.9175 3.96066ZM52.5595 6.04666C51.7615 6.14466 50.8095 6.74666 50.5155 7.36266C50.0815 8.28666 50.3475 9.54666 51.0335 9.81266C51.6775 10.0647 52.7695 9.82666 53.3155 9.51866C53.7635 9.26666 54.3095 8.67866 54.3935 8.25866C54.6735 6.97066 53.2875 5.94866 52.5595 6.04666ZM52.9095 7.95066C52.9095 8.45466 52.4615 8.69266 52.0135 8.52466C51.0335 8.13266 52.9235 6.87266 52.9095 7.95066ZM2.57101 24.3587C3.43901 24.1907 4.16701 24.3167 4.88101 23.8267C5.62301 23.4627 6.42101 22.7207 6.75701 22.1187C7.31701 21.1527 7.12101 19.8507 6.53301 19.1367C5.60901 18.1427 4.60101 18.0167 3.20101 17.9467C2.62701 17.9747 1.77301 18.0867 1.52101 18.6467C1.26901 19.8367 1.08701 21.3907 1.00301 22.6087C0.961008 23.5887 0.919008 24.4147 0.891008 25.4647C0.877008 26.0667 0.695008 26.7947 1.19901 26.9347C1.98301 27.1447 2.34701 26.4587 2.41701 25.7447C2.47301 25.2547 2.45901 24.7367 2.57101 24.3587ZM5.35701 21.5447C4.93701 22.4967 3.69101 23.0287 2.51501 22.9867C2.45901 22.2447 2.62701 21.0827 2.78101 20.1587C2.89301 19.5147 2.83701 19.3887 3.48101 19.3467C4.79701 19.2347 5.95901 20.1727 5.35701 21.5447ZM9.75498 22.4687C10.091 22.3567 10.665 22.1887 11.099 22.0627C11.743 21.8807 12.065 21.6847 12.695 21.4607C13.073 21.3347 13.339 20.8587 13.311 20.4807C13.311 20.2287 13.115 19.6687 13.017 19.5007C12.415 18.0867 11.267 17.6807 9.89498 18.1567C9.33498 18.3247 8.70498 18.8707 8.36898 19.5007C7.92098 20.1167 7.76698 20.9987 8.03298 22.2027C8.41098 23.3507 8.77498 23.7567 9.90898 24.2187C10.623 24.5967 11.995 24.4147 12.709 23.8967C12.947 23.7007 13.017 23.2667 12.709 22.9447C12.177 22.6227 11.785 23.3787 10.847 23.1827C10.231 23.0567 9.86698 22.9307 9.75498 22.4687ZM9.75498 19.8227C10.637 19.1087 11.477 19.1647 11.841 20.2287C11.771 20.4667 11.365 20.7047 11.043 20.7747C10.553 20.8727 9.69898 21.1527 9.44698 21.1107C9.33498 20.8587 9.39098 20.1167 9.75498 19.8227ZM15.9184 17.8347C15.7924 17.6947 15.5684 17.6107 15.3584 17.6247C14.6024 17.6527 14.6304 18.1567 14.5044 19.1927C14.3784 20.3267 14.3364 22.2167 14.2384 23.3647C14.1964 23.6587 14.1404 23.9807 14.1964 24.1487C14.2664 24.3167 14.5604 24.4847 14.7704 24.4987C15.3024 24.5267 15.5684 24.4987 15.7084 24.0227C15.8764 23.4347 15.8624 21.8527 15.9044 21.1947C15.9044 20.9567 16.8564 20.3127 17.4304 20.1447C17.6684 20.0607 18.2704 19.9067 18.5644 19.8367C18.8444 19.7667 19.3624 19.4447 19.2784 18.8847C19.2224 18.6187 18.8864 18.4367 18.5924 18.4087C18.0884 18.3387 17.5144 18.5627 17.1364 18.7027C16.7864 18.8427 16.3104 19.2907 15.9604 19.1787C15.9884 18.7167 16.0724 18.3107 15.9184 17.8347ZM25.4597 20.4807C25.3617 20.0747 25.8797 18.1007 25.3057 17.6667C25.1517 17.5407 24.8297 17.5267 24.6757 17.6107C24.0597 17.9187 24.0877 18.6327 24.0597 19.5567C24.0317 19.9627 23.9897 20.5367 23.9337 21.1387C23.8637 21.7547 23.8497 22.3987 23.8077 22.8747C23.7517 23.4487 23.6817 23.9667 23.9757 24.1347C24.1297 24.2327 24.6057 24.2187 24.8297 24.0927C25.0817 23.9527 25.2777 23.5327 25.4597 23.0847C25.7677 22.2727 26.1457 21.7407 26.5377 21.0967C26.7477 20.7467 26.9157 20.2707 27.3217 20.2007C27.5737 20.8167 27.2937 21.6567 27.1957 22.4407C27.1537 22.7347 27.0837 23.0707 27.1117 23.2527C27.2377 24.0087 28.1057 23.8407 28.5257 23.4347C29.0717 22.9167 29.5197 21.9787 29.8977 21.3347C30.0237 21.0827 30.1917 20.8307 30.4577 20.6907C30.5557 21.2507 30.4297 21.7547 30.3597 22.2447C30.3037 22.7067 30.1777 23.3787 30.2757 23.8827C30.4437 24.7367 31.4517 24.5267 31.6897 23.9387C31.8157 23.6307 31.8437 22.9027 31.8857 22.4687C31.9277 21.9787 31.9557 21.4747 32.0117 21.0127C32.0957 20.2847 32.4177 18.4647 31.8017 18.2127C31.0597 17.9187 30.5557 18.8147 30.2617 19.2207C30.0797 19.4727 29.8137 19.7947 29.6317 20.0607C29.4497 20.3267 29.2257 20.5367 28.8477 20.8867C28.8337 19.5427 28.6657 17.8067 27.3357 18.3807C26.8177 18.6047 26.3697 19.3187 26.0617 19.7527C25.8937 19.9767 25.6137 20.3827 25.4597 20.4807ZM35.4686 17.8207C35.0206 17.8907 34.7966 18.0447 34.4606 18.2967C33.9286 18.7167 33.8586 18.8707 33.5366 19.3747C32.9206 20.2847 32.7666 21.8947 33.5086 22.9167C33.9146 23.3367 34.7266 23.7847 35.4406 23.8547C36.2946 23.9527 36.9386 23.7147 37.4706 23.3647C38.3946 22.6927 39.0386 21.6147 38.8846 20.5087C38.8286 18.7167 37.4986 17.4567 35.4686 17.8207ZM34.5306 21.4467C34.3906 20.5647 35.0626 19.2627 35.8186 19.1227C36.7986 18.9407 37.6386 19.9907 37.3866 21.1667C37.2606 21.7967 36.6586 22.3287 36.2246 22.4547C35.3006 22.6927 34.6426 22.1327 34.5306 21.4467ZM41.4998 20.5787C41.3178 19.6687 41.8078 17.9187 40.6878 18.1287C40.0438 18.2547 40.0858 19.2487 40.0578 20.0467C40.0158 21.0407 39.8758 21.8947 39.7778 22.8747C39.6798 23.7567 39.5118 24.6667 40.5198 24.4567C40.8978 24.3867 41.3598 23.1687 41.5978 22.7487C42.0178 22.0487 41.9198 22.0627 42.6198 21.1387C42.8998 20.7467 43.1798 20.2147 43.6138 20.1587C43.6978 20.7887 43.6278 21.1807 43.5438 21.8527C43.4458 22.5387 43.3758 23.2807 43.4178 23.9667C43.7398 24.4707 44.6918 24.2467 44.8738 23.7707C44.9298 23.6167 44.8738 23.2807 44.8738 23.0287C44.8878 22.0067 45.2378 20.4107 45.1538 19.4447C45.1118 18.9967 44.8878 18.4787 44.7198 18.3807C44.1738 18.0167 43.6278 18.3947 43.2638 18.6607C42.7878 19.0247 42.3958 19.4727 42.0878 19.9347C41.9338 20.1727 41.7518 20.3407 41.4998 20.5787ZM49.6469 17.9747C49.4929 17.0227 49.7449 16.6447 49.8429 15.9027C49.9689 15.4127 50.0529 15.0487 49.3529 15.0907C48.2469 15.1467 48.3589 16.0707 48.2329 16.8827C48.1769 17.2047 48.1069 18.0447 47.8689 18.2127C47.6449 18.3667 46.6789 18.3527 46.3849 18.4227C46.1049 18.5347 45.8669 18.8147 45.8249 19.0807C45.7549 19.3187 45.8529 19.7527 46.1469 19.9067C46.5529 20.1027 47.5329 19.6687 47.8409 20.0327C47.7849 20.8447 47.7709 21.4887 47.6869 22.0207C47.6729 22.2727 47.5049 23.3367 47.4629 23.5887C47.4349 23.8127 47.1269 25.0167 47.2109 25.2407C47.3089 25.4367 47.7569 25.5627 48.0649 25.5207C48.7649 25.4227 48.8489 23.8687 48.9469 23.3927C48.9889 23.1127 49.1289 22.0347 49.1569 21.7547C49.1989 21.4187 49.2969 19.8367 49.5629 19.6127C49.8149 19.3887 50.9629 19.4867 51.3969 19.2627C51.6909 19.1087 51.8589 18.7027 51.7749 18.3247C51.6349 17.6667 49.9829 18.2967 49.6469 17.9747ZM54.6059 18.3807C54.4659 18.3947 54.6619 17.3727 54.7319 16.7847C54.7739 16.3787 55.0399 15.7487 54.7739 15.3007C54.6339 15.0767 54.2559 14.9507 53.9339 15.0207C53.3039 15.1607 53.3179 16.4347 53.2339 17.3447C53.1499 18.2127 53.0379 18.8287 52.9399 19.8507C52.7719 21.3207 52.6179 21.9507 52.4499 23.2807C52.3519 24.0787 52.3659 24.8487 52.9819 24.9327C53.8639 25.0027 53.8639 24.3167 53.9339 23.6027C54.0879 22.4967 54.0599 21.8387 54.2839 20.8447C54.4099 20.4947 54.6059 20.1587 54.8579 19.9347C55.0819 19.7107 55.3899 19.4867 55.8519 19.4867C56.0899 19.6967 56.0339 21.2927 56.0479 21.6287C56.0339 23.1267 55.8939 24.3727 56.0479 24.6247C56.2019 24.8767 56.8179 25.0027 57.1259 24.6807C57.4759 24.3307 57.4339 23.3927 57.4199 22.5107C57.4199 21.6707 57.4759 20.5927 57.4339 19.9067C57.3779 18.9407 57.0979 17.9467 56.4819 17.8207C55.6559 17.6527 55.3339 18.3527 54.6059 18.3807Z" fill="white"/>
</svg>
